<svg width="478" height="334" viewBox="0 0 478 334" fill="none" xmlns="http://www.w3.org/2000/svg">
<g clip-path="url(#clip0)">
<path d="M239 167C285.232 167 322.65 129.621 322.65 83.4375C322.65 37.2543 285.232 -0.125 239 -0.125C192.768 -0.125 155.35 37.2543 155.35 83.4375C155.35 129.621 192.768 167 239 167ZM296.36 190.875H290.161C274.626 198.336 257.373 202.812 239 202.812C220.627 202.812 203.449 198.336 187.839 190.875H181.64C134.139 190.875 95.6 229.373 95.6 276.825V298.312C95.6 318.084 111.658 334.125 131.45 334.125H346.55C366.342 334.125 382.4 318.084 382.4 298.312V276.825C382.4 229.373 343.861 190.875 296.36 190.875Z" fill="#FFBA17"/>
</g>
<g clip-path="url(#clip1)">
<path fill-rule="evenodd" clip-rule="evenodd" d="M406.3 143.125C432.665 143.125 454.1 121.712 454.1 95.375C454.1 69.0379 432.665 47.625 406.3 47.625C379.935 47.625 358.5 69.0379 358.5 95.375C358.5 121.712 379.935 143.125 406.3 143.125ZM382.4 167C369.255 167 357.38 172.297 348.716 180.877C378.815 197.366 400.176 227.135 404.806 262.5H454.1C467.32 262.5 478 251.831 478 238.625V214.75C478 188.413 456.565 167 430.2 167H382.4Z" fill="#E87E15"/>
</g>
<g clip-path="url(#clip2)">
<path fill-rule="evenodd" clip-rule="evenodd" d="M71.7 143.125C98.0647 143.125 119.5 121.712 119.5 95.375C119.5 69.0379 98.0647 47.625 71.7 47.625C45.3353 47.625 23.9 69.0379 23.9 95.375C23.9 121.712 45.3353 143.125 71.7 143.125ZM129.284 180.877C120.62 172.297 108.745 167 95.6 167H47.8C21.4353 167 0 188.413 0 214.75V238.625C0 251.831 10.6803 262.5 23.9 262.5H73.1191C77.8244 227.135 99.185 197.366 129.284 180.877Z" fill="#F04937"/>
</g>
<defs>
<clipPath id="clip0">
<rect width="288" height="334" fill="white" transform="translate(95)"/>
</clipPath>
<clipPath id="clip1">
<rect width="129" height="216" fill="white" transform="translate(349 47)"/>
</clipPath>
<clipPath id="clip2">
<rect width="129" height="216" fill="white" transform="translate(0 47)"/>
</clipPath>
</defs>
</svg>
